<mxfile host="app.diagrams.net" agent="Mozilla/5.0 (Windows NT 10.0; Win64; x64) AppleWebKit/537.36 (KHTML, like Gecko) Chrome/137.0.0.0 Safari/537.36 Edg/137.0.0.0" version="26.2.12">
  <diagram name="Seite-1" id="7jR8jegkBAVtS7E36nt1">
    <mxGraphModel dx="4120" dy="3878" grid="1" gridSize="10" guides="1" tooltips="1" connect="1" arrows="1" fold="1" page="1" pageScale="1" pageWidth="1169" pageHeight="827" math="0" shadow="0">
      <root>
        <mxCell id="0" />
        <mxCell id="1" parent="0" />
        <mxCell id="FFqw4hAM8KVHVjfi0ow6-149" style="edgeStyle=entityRelationEdgeStyle;rounded=0;orthogonalLoop=1;jettySize=auto;html=1;entryX=0;entryY=0.5;entryDx=0;entryDy=0;" edge="1" parent="1" source="FFqw4hAM8KVHVjfi0ow6-29" target="FFqw4hAM8KVHVjfi0ow6-144">
          <mxGeometry relative="1" as="geometry" />
        </mxCell>
        <mxCell id="FFqw4hAM8KVHVjfi0ow6-29" value="ALKIS-Datensatz Gebäude&amp;nbsp;&lt;div&gt;inkl.&amp;nbsp;&lt;span&gt;Gebäudefunktion&lt;/span&gt;&lt;/div&gt;" style="sketch=0;pointerEvents=1;shadow=0;dashed=0;html=1;strokeColor=none;fillColor=#434445;aspect=fixed;labelPosition=center;verticalLabelPosition=bottom;verticalAlign=top;align=center;outlineConnect=0;shape=mxgraph.vvd.datastore;fontColor=light-dark(#000000,#EDEDED);labelBackgroundColor=none;fontFamily=Tahoma;fontSize=12;" vertex="1" parent="1">
          <mxGeometry x="265.5" y="-1029" width="50" height="39" as="geometry" />
        </mxCell>
        <mxCell id="FFqw4hAM8KVHVjfi0ow6-148" style="edgeStyle=entityRelationEdgeStyle;rounded=0;orthogonalLoop=1;jettySize=auto;html=1;entryX=0;entryY=0.5;entryDx=0;entryDy=0;" edge="1" parent="1" source="FFqw4hAM8KVHVjfi0ow6-30" target="FFqw4hAM8KVHVjfi0ow6-143">
          <mxGeometry relative="1" as="geometry" />
        </mxCell>
        <mxCell id="FFqw4hAM8KVHVjfi0ow6-30" value="Gebäude mit Wohnraum&amp;nbsp;&lt;div&gt;nach Gebäudetyp&amp;nbsp;&lt;/div&gt;&lt;div&gt;(100m Gitter)&lt;/div&gt;" style="sketch=0;pointerEvents=1;shadow=0;dashed=0;html=1;strokeColor=none;fillColor=#434445;aspect=fixed;labelPosition=center;verticalLabelPosition=bottom;verticalAlign=top;align=center;outlineConnect=0;shape=mxgraph.vvd.datastore;fontColor=light-dark(#000000,#EDEDED);labelBackgroundColor=none;fontFamily=Tahoma;fontSize=12;" vertex="1" parent="1">
          <mxGeometry x="263.5" y="-1135.5" width="50" height="39" as="geometry" />
        </mxCell>
        <mxCell id="FFqw4hAM8KVHVjfi0ow6-147" style="edgeStyle=entityRelationEdgeStyle;rounded=0;orthogonalLoop=1;jettySize=auto;html=1;entryX=0;entryY=0.5;entryDx=0;entryDy=0;" edge="1" parent="1" source="FFqw4hAM8KVHVjfi0ow6-32" target="FFqw4hAM8KVHVjfi0ow6-142">
          <mxGeometry relative="1" as="geometry" />
        </mxCell>
        <mxCell id="FFqw4hAM8KVHVjfi0ow6-32" value="Gebäude mit Wohnraum&amp;nbsp;&lt;div&gt;nach Baujahr in Mikrozensus-Klassen&lt;/div&gt;&lt;div&gt;(100m Gitter)&lt;/div&gt;" style="sketch=0;pointerEvents=1;shadow=0;dashed=0;html=1;strokeColor=none;fillColor=#434445;aspect=fixed;labelPosition=center;verticalLabelPosition=bottom;verticalAlign=top;align=center;outlineConnect=0;shape=mxgraph.vvd.datastore;fontColor=light-dark(#000000,#EDEDED);labelBackgroundColor=none;fontFamily=Tahoma;fontSize=12;" vertex="1" parent="1">
          <mxGeometry x="263.5" y="-1243.5" width="50" height="39" as="geometry" />
        </mxCell>
        <mxCell id="FFqw4hAM8KVHVjfi0ow6-145" style="edgeStyle=entityRelationEdgeStyle;rounded=0;orthogonalLoop=1;jettySize=auto;html=1;entryX=0;entryY=0.5;entryDx=0;entryDy=0;" edge="1" parent="1" source="FFqw4hAM8KVHVjfi0ow6-33" target="FFqw4hAM8KVHVjfi0ow6-142">
          <mxGeometry relative="1" as="geometry" />
        </mxCell>
        <mxCell id="FFqw4hAM8KVHVjfi0ow6-33" value="Bebauungsplan,&amp;nbsp;&lt;div&gt;genehmigt/rechtskräftig&lt;/div&gt;" style="sketch=0;pointerEvents=1;shadow=0;dashed=0;html=1;strokeColor=none;fillColor=#434445;aspect=fixed;labelPosition=center;verticalLabelPosition=bottom;verticalAlign=top;align=center;outlineConnect=0;shape=mxgraph.vvd.datastore;fontColor=light-dark(#000000,#EDEDED);labelBackgroundColor=none;fontFamily=Tahoma;fontSize=12;" vertex="1" parent="1">
          <mxGeometry x="263.5" y="-1459.5" width="50" height="39" as="geometry" />
        </mxCell>
        <mxCell id="FFqw4hAM8KVHVjfi0ow6-146" style="edgeStyle=entityRelationEdgeStyle;rounded=0;orthogonalLoop=1;jettySize=auto;html=1;" edge="1" parent="1" source="FFqw4hAM8KVHVjfi0ow6-34" target="FFqw4hAM8KVHVjfi0ow6-142">
          <mxGeometry relative="1" as="geometry" />
        </mxCell>
        <mxCell id="FFqw4hAM8KVHVjfi0ow6-34" value="Flächennutzungsplan,&lt;div&gt;genehmigt/rechtskräftig&lt;/div&gt;" style="sketch=0;pointerEvents=1;shadow=0;dashed=0;html=1;strokeColor=none;fillColor=#434445;aspect=fixed;labelPosition=center;verticalLabelPosition=bottom;verticalAlign=top;align=center;outlineConnect=0;shape=mxgraph.vvd.datastore;fontColor=light-dark(#000000,#EDEDED);labelBackgroundColor=none;fontFamily=Tahoma;fontSize=12;" vertex="1" parent="1">
          <mxGeometry x="263.5" y="-1351.5" width="50" height="39" as="geometry" />
        </mxCell>
        <mxCell id="FFqw4hAM8KVHVjfi0ow6-125" style="edgeStyle=entityRelationEdgeStyle;rounded=0;orthogonalLoop=1;jettySize=auto;html=1;entryX=0;entryY=0.5;entryDx=0;entryDy=0;" edge="1" parent="1" source="FFqw4hAM8KVHVjfi0ow6-43" target="FFqw4hAM8KVHVjfi0ow6-137">
          <mxGeometry relative="1" as="geometry">
            <mxPoint x="865" y="-1323.75" as="targetPoint" />
          </mxGeometry>
        </mxCell>
        <mxCell id="FFqw4hAM8KVHVjfi0ow6-151" style="edgeStyle=entityRelationEdgeStyle;rounded=0;orthogonalLoop=1;jettySize=auto;html=1;entryX=0;entryY=0.5;entryDx=0;entryDy=0;" edge="1" parent="1" source="FFqw4hAM8KVHVjfi0ow6-43" target="FFqw4hAM8KVHVjfi0ow6-144">
          <mxGeometry relative="1" as="geometry" />
        </mxCell>
        <mxCell id="FFqw4hAM8KVHVjfi0ow6-43" value="kww&amp;nbsp;Technikkatalog&amp;nbsp;&lt;div&gt;Wärmeplanung&lt;/div&gt;" style="shape=image;html=1;verticalAlign=top;verticalLabelPosition=bottom;labelBackgroundColor=none;imageAspect=0;aspect=fixed;image=https://cdn2.iconfinder.com/data/icons/simple-files/128/csv1.png;fontColor=light-dark(#000000,#EDEDED);fontFamily=Tahoma;fontSize=12;" vertex="1" parent="1">
          <mxGeometry x="266" y="-1570" width="45" height="45" as="geometry" />
        </mxCell>
        <mxCell id="FFqw4hAM8KVHVjfi0ow6-163" style="edgeStyle=entityRelationEdgeStyle;rounded=0;orthogonalLoop=1;jettySize=auto;html=1;entryX=0;entryY=0.5;entryDx=0;entryDy=0;" edge="1" parent="1" source="FFqw4hAM8KVHVjfi0ow6-48" target="FFqw4hAM8KVHVjfi0ow6-159">
          <mxGeometry relative="1" as="geometry" />
        </mxCell>
        <mxCell id="FFqw4hAM8KVHVjfi0ow6-164" style="edgeStyle=entityRelationEdgeStyle;rounded=0;orthogonalLoop=1;jettySize=auto;html=1;entryX=0;entryY=0.5;entryDx=0;entryDy=0;" edge="1" parent="1" source="FFqw4hAM8KVHVjfi0ow6-48" target="FFqw4hAM8KVHVjfi0ow6-166">
          <mxGeometry relative="1" as="geometry" />
        </mxCell>
        <mxCell id="FFqw4hAM8KVHVjfi0ow6-48" value="LoD2-Gebäudedaten" style="sketch=0;pointerEvents=1;shadow=0;dashed=0;html=1;strokeColor=none;fillColor=#434445;aspect=fixed;labelPosition=center;verticalLabelPosition=bottom;verticalAlign=top;align=center;outlineConnect=0;shape=mxgraph.vvd.datastore;fontColor=light-dark(#000000,#EDEDED);labelBackgroundColor=none;fontFamily=Tahoma;fontSize=12;" vertex="1" parent="1">
          <mxGeometry x="264" y="-539" width="50" height="39" as="geometry" />
        </mxCell>
        <mxCell id="FFqw4hAM8KVHVjfi0ow6-162" style="edgeStyle=entityRelationEdgeStyle;rounded=0;orthogonalLoop=1;jettySize=auto;html=1;entryX=0;entryY=0.5;entryDx=0;entryDy=0;" edge="1" parent="1" source="FFqw4hAM8KVHVjfi0ow6-49" target="FFqw4hAM8KVHVjfi0ow6-159">
          <mxGeometry relative="1" as="geometry" />
        </mxCell>
        <mxCell id="FFqw4hAM8KVHVjfi0ow6-49" value="LoD1-Gebäudedaten" style="sketch=0;pointerEvents=1;shadow=0;dashed=0;html=1;strokeColor=none;fillColor=#434445;aspect=fixed;labelPosition=center;verticalLabelPosition=bottom;verticalAlign=top;align=center;outlineConnect=0;shape=mxgraph.vvd.datastore;fontColor=light-dark(#000000,#EDEDED);labelBackgroundColor=none;fontFamily=Tahoma;fontSize=12;" vertex="1" parent="1">
          <mxGeometry x="264" y="-624" width="50" height="39" as="geometry" />
        </mxCell>
        <mxCell id="FFqw4hAM8KVHVjfi0ow6-177" style="edgeStyle=entityRelationEdgeStyle;rounded=0;orthogonalLoop=1;jettySize=auto;html=1;entryX=0;entryY=0.5;entryDx=0;entryDy=0;" edge="1" parent="1" source="FFqw4hAM8KVHVjfi0ow6-55" target="FFqw4hAM8KVHVjfi0ow6-175">
          <mxGeometry relative="1" as="geometry" />
        </mxCell>
        <mxCell id="FFqw4hAM8KVHVjfi0ow6-55" value="&lt;div&gt;Digitale Basis-Landschaftsmodell&amp;nbsp;&lt;/div&gt;&lt;div&gt;(Basis-DLM):&amp;nbsp;&lt;/div&gt;&lt;div&gt;Siedlungsflächen&lt;/div&gt;" style="sketch=0;pointerEvents=1;shadow=0;dashed=0;html=1;strokeColor=none;fillColor=#434445;aspect=fixed;labelPosition=center;verticalLabelPosition=bottom;verticalAlign=top;align=center;outlineConnect=0;shape=mxgraph.vvd.datastore;fontColor=light-dark(#000000,#EDEDED);labelBackgroundColor=none;fontFamily=Tahoma;fontSize=12;" vertex="1" parent="1">
          <mxGeometry x="265.5" y="-270" width="50" height="39" as="geometry" />
        </mxCell>
        <mxCell id="FFqw4hAM8KVHVjfi0ow6-179" style="edgeStyle=entityRelationEdgeStyle;rounded=0;orthogonalLoop=1;jettySize=auto;html=1;entryX=0;entryY=0.5;entryDx=0;entryDy=0;" edge="1" parent="1" source="FFqw4hAM8KVHVjfi0ow6-60" target="FFqw4hAM8KVHVjfi0ow6-178">
          <mxGeometry relative="1" as="geometry" />
        </mxCell>
        <mxCell id="FFqw4hAM8KVHVjfi0ow6-60" value="&lt;div&gt;Digitale Basis-Landschaftsmodell&amp;nbsp;&lt;/div&gt;&lt;div&gt;(Basis-DLM):&amp;nbsp;&lt;/div&gt;&lt;div&gt;Verkehr - Straßen-/Fahrbahnachse&lt;/div&gt;" style="sketch=0;pointerEvents=1;shadow=0;dashed=0;html=1;strokeColor=none;fillColor=#434445;aspect=fixed;labelPosition=center;verticalLabelPosition=bottom;verticalAlign=top;align=center;outlineConnect=0;shape=mxgraph.vvd.datastore;fontColor=light-dark(#000000,#EDEDED);labelBackgroundColor=none;fontFamily=Tahoma;fontSize=12;" vertex="1" parent="1">
          <mxGeometry x="265.5" y="-160" width="50" height="39" as="geometry" />
        </mxCell>
        <mxCell id="FFqw4hAM8KVHVjfi0ow6-74" style="edgeStyle=entityRelationEdgeStyle;rounded=0;orthogonalLoop=1;jettySize=auto;html=1;entryX=0;entryY=0.5;entryDx=0;entryDy=0;fontFamily=Tahoma;fontSize=12;" edge="1" parent="1" source="FFqw4hAM8KVHVjfi0ow6-65" target="FFqw4hAM8KVHVjfi0ow6-154">
          <mxGeometry relative="1" as="geometry">
            <mxPoint x="463.25" y="-874.75" as="targetPoint" />
          </mxGeometry>
        </mxCell>
        <mxCell id="FFqw4hAM8KVHVjfi0ow6-65" value="VDI 3807 Blatt 2&amp;nbsp;&lt;div&gt;Verbrauchskennwerte für Gebäude –&amp;nbsp;&lt;/div&gt;&lt;div&gt;Verbrauchskennwerte für&amp;nbsp;&lt;/div&gt;&lt;div&gt;Heizenergie, Strom und Wasser&lt;/div&gt;" style="shape=image;html=1;verticalAlign=top;verticalLabelPosition=bottom;labelBackgroundColor=none;imageAspect=0;aspect=fixed;image=https://cdn2.iconfinder.com/data/icons/simple-files/128/csv1.png;fontColor=light-dark(#000000,#EDEDED);fontFamily=Tahoma;fontSize=12;" vertex="1" parent="1">
          <mxGeometry x="265.5" y="-895" width="45" height="45" as="geometry" />
        </mxCell>
        <mxCell id="FFqw4hAM8KVHVjfi0ow6-67" style="edgeStyle=orthogonalEdgeStyle;rounded=0;orthogonalLoop=1;jettySize=auto;html=1;fontFamily=Tahoma;fontSize=12;labelBackgroundColor=none;fontColor=light-dark(#000000,#EDEDED);" edge="1" parent="1" source="FFqw4hAM8KVHVjfi0ow6-66" target="FFqw4hAM8KVHVjfi0ow6-43">
          <mxGeometry relative="1" as="geometry" />
        </mxCell>
        <mxCell id="FFqw4hAM8KVHVjfi0ow6-66" value="IWU&amp;nbsp;Typologie der&amp;nbsp;&lt;div&gt;Nichtwohngebäude&amp;nbsp;&lt;/div&gt;&lt;div&gt;in Deutschland&lt;/div&gt;" style="shape=image;html=1;verticalAlign=top;verticalLabelPosition=bottom;labelBackgroundColor=none;imageAspect=0;aspect=fixed;image=https://cdn2.iconfinder.com/data/icons/simple-files/128/csv1.png;fontColor=light-dark(#000000,#EDEDED);fontFamily=Tahoma;fontSize=12;" vertex="1" parent="1">
          <mxGeometry x="39" y="-1570" width="45" height="45" as="geometry" />
        </mxCell>
        <mxCell id="FFqw4hAM8KVHVjfi0ow6-165" style="edgeStyle=entityRelationEdgeStyle;rounded=0;orthogonalLoop=1;jettySize=auto;html=1;entryX=0;entryY=0.5;entryDx=0;entryDy=0;" edge="1" parent="1" source="FFqw4hAM8KVHVjfi0ow6-72" target="FFqw4hAM8KVHVjfi0ow6-160">
          <mxGeometry relative="1" as="geometry" />
        </mxCell>
        <mxCell id="FFqw4hAM8KVHVjfi0ow6-72" value="Wärmeplanung Hamburg&amp;nbsp;&lt;div&gt;(Ivan Dochev):&lt;div&gt;assigning-energetic-types-to-buildings&lt;/div&gt;&lt;/div&gt;" style="shape=image;html=1;verticalAlign=top;verticalLabelPosition=bottom;labelBackgroundColor=none;imageAspect=0;aspect=fixed;image=https://cdn4.iconfinder.com/data/icons/ionicons/512/icon-social-github-outline-128.png;fontColor=light-dark(#000000,#EDEDED);fontFamily=Tahoma;fontSize=12;" vertex="1" parent="1">
          <mxGeometry x="265" y="-458" width="48" height="48" as="geometry" />
        </mxCell>
        <mxCell id="FFqw4hAM8KVHVjfi0ow6-75" value="Eigene Annahmen&amp;nbsp;&lt;div&gt;je Gebäudefunktion&lt;/div&gt;" style="sketch=0;pointerEvents=1;shadow=0;dashed=0;html=1;strokeColor=none;fillColor=#434445;aspect=fixed;labelPosition=center;verticalLabelPosition=bottom;verticalAlign=top;align=center;outlineConnect=0;shape=mxgraph.vvd.datastore;labelBackgroundColor=none;fontColor=light-dark(#000000,#EDEDED);fontFamily=Tahoma;fontSize=12;" vertex="1" parent="1">
          <mxGeometry x="264" y="-710" width="50" height="39" as="geometry" />
        </mxCell>
        <mxCell id="FFqw4hAM8KVHVjfi0ow6-97" style="edgeStyle=entityRelationEdgeStyle;rounded=0;orthogonalLoop=1;jettySize=auto;html=1;entryX=0;entryY=0.5;entryDx=0;entryDy=0;fontFamily=Tahoma;fontSize=12;" edge="1" parent="1" source="FFqw4hAM8KVHVjfi0ow6-29" target="FFqw4hAM8KVHVjfi0ow6-153">
          <mxGeometry relative="1" as="geometry">
            <mxPoint x="463.5" y="-874.5" as="targetPoint" />
          </mxGeometry>
        </mxCell>
        <mxCell id="FFqw4hAM8KVHVjfi0ow6-172" style="edgeStyle=entityRelationEdgeStyle;rounded=0;orthogonalLoop=1;jettySize=auto;html=1;entryX=0;entryY=0.5;entryDx=0;entryDy=0;" edge="1" parent="1" source="FFqw4hAM8KVHVjfi0ow6-135" target="FFqw4hAM8KVHVjfi0ow6-171">
          <mxGeometry relative="1" as="geometry" />
        </mxCell>
        <mxCell id="FFqw4hAM8KVHVjfi0ow6-135" value="Beheizte Fläche&lt;div&gt;[m²]&lt;/div&gt;" style="whiteSpace=wrap;html=1;fontFamily=Tahoma;strokeWidth=1;dashed=0;rounded=1;arcSize=5;fillColor=#eeeeee;strokeColor=#36393d;" vertex="1" parent="1">
          <mxGeometry x="650" y="-780" width="120" height="60" as="geometry" />
        </mxCell>
        <mxCell id="FFqw4hAM8KVHVjfi0ow6-173" style="edgeStyle=entityRelationEdgeStyle;rounded=0;orthogonalLoop=1;jettySize=auto;html=1;entryX=0;entryY=0.5;entryDx=0;entryDy=0;" edge="1" parent="1" source="FFqw4hAM8KVHVjfi0ow6-137" target="FFqw4hAM8KVHVjfi0ow6-171">
          <mxGeometry relative="1" as="geometry" />
        </mxCell>
        <mxCell id="FFqw4hAM8KVHVjfi0ow6-137" value="Spezif. Nutzenergie-bedarf f. Heizung u. Warmwasser&amp;nbsp; [kWh/(m²*a)]" style="whiteSpace=wrap;html=1;fontFamily=Tahoma;strokeWidth=1;dashed=0;rounded=1;arcSize=5;fillColor=#eeeeee;strokeColor=#36393d;" vertex="1" parent="1">
          <mxGeometry x="660" y="-1320" width="120" height="60" as="geometry" />
        </mxCell>
        <mxCell id="FFqw4hAM8KVHVjfi0ow6-150" style="edgeStyle=entityRelationEdgeStyle;rounded=0;orthogonalLoop=1;jettySize=auto;html=1;entryX=0;entryY=0.5;entryDx=0;entryDy=0;" edge="1" parent="1" source="FFqw4hAM8KVHVjfi0ow6-141" target="FFqw4hAM8KVHVjfi0ow6-137">
          <mxGeometry relative="1" as="geometry" />
        </mxCell>
        <mxCell id="FFqw4hAM8KVHVjfi0ow6-141" value="Zuordnung eines energetischen Gebäudetyps nach GEMOD" style="swimlane;fontStyle=0;childLayout=stackLayout;horizontal=1;startSize=60;horizontalStack=0;resizeParent=1;resizeParentMax=0;resizeLast=0;collapsible=1;marginBottom=0;whiteSpace=wrap;html=1;fillColor=#eeeeee;strokeColor=#36393d;" vertex="1" parent="1">
          <mxGeometry x="445" y="-1305" width="140" height="150" as="geometry" />
        </mxCell>
        <mxCell id="FFqw4hAM8KVHVjfi0ow6-144" value="&lt;span style=&quot;font-family: Tahoma; text-align: center;&quot;&gt;Gebäudefunktion&lt;/span&gt;" style="text;strokeColor=none;fillColor=none;align=left;verticalAlign=middle;spacingLeft=4;spacingRight=4;overflow=hidden;points=[[0,0.5],[1,0.5]];portConstraint=eastwest;rotatable=0;whiteSpace=wrap;html=1;" vertex="1" parent="FFqw4hAM8KVHVjfi0ow6-141">
          <mxGeometry y="60" width="140" height="30" as="geometry" />
        </mxCell>
        <mxCell id="FFqw4hAM8KVHVjfi0ow6-142" value="&lt;span style=&quot;font-family: Tahoma; text-align: center;&quot;&gt;Baualtersklasse&lt;/span&gt;" style="text;strokeColor=none;fillColor=none;align=left;verticalAlign=middle;spacingLeft=4;spacingRight=4;overflow=hidden;points=[[0,0.5],[1,0.5]];portConstraint=eastwest;rotatable=0;whiteSpace=wrap;html=1;" vertex="1" parent="FFqw4hAM8KVHVjfi0ow6-141">
          <mxGeometry y="90" width="140" height="30" as="geometry" />
        </mxCell>
        <mxCell id="FFqw4hAM8KVHVjfi0ow6-143" value="&lt;span style=&quot;font-family: Tahoma; text-align: center;&quot;&gt;Gebäudetyp&lt;/span&gt;" style="text;strokeColor=none;fillColor=none;align=left;verticalAlign=middle;spacingLeft=4;spacingRight=4;overflow=hidden;points=[[0,0.5],[1,0.5]];portConstraint=eastwest;rotatable=0;whiteSpace=wrap;html=1;" vertex="1" parent="FFqw4hAM8KVHVjfi0ow6-141">
          <mxGeometry y="120" width="140" height="30" as="geometry" />
        </mxCell>
        <mxCell id="FFqw4hAM8KVHVjfi0ow6-156" style="edgeStyle=entityRelationEdgeStyle;rounded=0;orthogonalLoop=1;jettySize=auto;html=1;entryX=0;entryY=0.5;entryDx=0;entryDy=0;" edge="1" parent="1" source="FFqw4hAM8KVHVjfi0ow6-152" target="FFqw4hAM8KVHVjfi0ow6-135">
          <mxGeometry relative="1" as="geometry" />
        </mxCell>
        <mxCell id="FFqw4hAM8KVHVjfi0ow6-152" value="Energiebezugsfläche je Geschoss" style="swimlane;fontStyle=0;childLayout=stackLayout;horizontal=1;startSize=60;horizontalStack=0;resizeParent=1;resizeParentMax=0;resizeLast=0;collapsible=1;marginBottom=0;whiteSpace=wrap;html=1;fillColor=#eeeeee;strokeColor=#36393d;" vertex="1" parent="1">
          <mxGeometry x="444.5" y="-990" width="140" height="140" as="geometry" />
        </mxCell>
        <mxCell id="FFqw4hAM8KVHVjfi0ow6-153" value="&lt;span style=&quot;font-family: Tahoma; text-align: center;&quot;&gt;Gebäudegrundfläche [m²]&lt;/span&gt;" style="text;strokeColor=none;fillColor=none;align=left;verticalAlign=middle;spacingLeft=4;spacingRight=4;overflow=hidden;points=[[0,0.5],[1,0.5]];portConstraint=eastwest;rotatable=0;whiteSpace=wrap;html=1;" vertex="1" parent="FFqw4hAM8KVHVjfi0ow6-152">
          <mxGeometry y="60" width="140" height="30" as="geometry" />
        </mxCell>
        <mxCell id="FFqw4hAM8KVHVjfi0ow6-154" value="&lt;span style=&quot;font-family: Tahoma; text-align: center;&quot;&gt;Korrekturfaktor Energiebezugsfläche&lt;/span&gt;" style="text;strokeColor=none;fillColor=none;align=left;verticalAlign=middle;spacingLeft=4;spacingRight=4;overflow=hidden;points=[[0,0.5],[1,0.5]];portConstraint=eastwest;rotatable=0;whiteSpace=wrap;html=1;" vertex="1" parent="FFqw4hAM8KVHVjfi0ow6-152">
          <mxGeometry y="90" width="140" height="50" as="geometry" />
        </mxCell>
        <mxCell id="FFqw4hAM8KVHVjfi0ow6-167" style="edgeStyle=entityRelationEdgeStyle;rounded=0;orthogonalLoop=1;jettySize=auto;html=1;entryX=0;entryY=0.5;entryDx=0;entryDy=0;" edge="1" parent="1" source="FFqw4hAM8KVHVjfi0ow6-157" target="FFqw4hAM8KVHVjfi0ow6-135">
          <mxGeometry relative="1" as="geometry" />
        </mxCell>
        <mxCell id="FFqw4hAM8KVHVjfi0ow6-157" value="Anzahl oberirdischer Geschosse" style="swimlane;fontStyle=0;childLayout=stackLayout;horizontal=1;startSize=60;horizontalStack=0;resizeParent=1;resizeParentMax=0;resizeLast=0;collapsible=1;marginBottom=0;whiteSpace=wrap;html=1;fillColor=#eeeeee;strokeColor=#36393d;" vertex="1" parent="1">
          <mxGeometry x="444.5" y="-659" width="140" height="180" as="geometry" />
        </mxCell>
        <mxCell id="FFqw4hAM8KVHVjfi0ow6-158" value="&lt;span style=&quot;font-family: Tahoma; text-align: center;&quot;&gt;Geschosshöhe [m]&lt;/span&gt;" style="text;strokeColor=none;fillColor=none;align=left;verticalAlign=middle;spacingLeft=4;spacingRight=4;overflow=hidden;points=[[0,0.5],[1,0.5]];portConstraint=eastwest;rotatable=0;whiteSpace=wrap;html=1;" vertex="1" parent="FFqw4hAM8KVHVjfi0ow6-157">
          <mxGeometry y="60" width="140" height="30" as="geometry" />
        </mxCell>
        <mxCell id="FFqw4hAM8KVHVjfi0ow6-159" value="&lt;span style=&quot;font-family: Tahoma; text-align: center;&quot;&gt;Gebäudehöhe [m]&lt;/span&gt;" style="text;strokeColor=none;fillColor=none;align=left;verticalAlign=middle;spacingLeft=4;spacingRight=4;overflow=hidden;points=[[0,0.5],[1,0.5]];portConstraint=eastwest;rotatable=0;whiteSpace=wrap;html=1;" vertex="1" parent="FFqw4hAM8KVHVjfi0ow6-157">
          <mxGeometry y="90" width="140" height="30" as="geometry" />
        </mxCell>
        <mxCell id="FFqw4hAM8KVHVjfi0ow6-166" value="Dachform" style="text;strokeColor=none;fillColor=none;align=left;verticalAlign=middle;spacingLeft=4;spacingRight=4;overflow=hidden;points=[[0,0.5],[1,0.5]];portConstraint=eastwest;rotatable=0;whiteSpace=wrap;html=1;" vertex="1" parent="FFqw4hAM8KVHVjfi0ow6-157">
          <mxGeometry y="120" width="140" height="30" as="geometry" />
        </mxCell>
        <mxCell id="FFqw4hAM8KVHVjfi0ow6-160" value="&lt;span style=&quot;font-family: Tahoma; text-align: center;&quot;&gt;Korrekturfaktor&lt;/span&gt;&lt;div style=&quot;font-family: Tahoma; text-align: center;&quot;&gt;Dachform&lt;/div&gt;" style="text;strokeColor=none;fillColor=none;align=left;verticalAlign=middle;spacingLeft=4;spacingRight=4;overflow=hidden;points=[[0,0.5],[1,0.5]];portConstraint=eastwest;rotatable=0;whiteSpace=wrap;html=1;" vertex="1" parent="FFqw4hAM8KVHVjfi0ow6-157">
          <mxGeometry y="150" width="140" height="30" as="geometry" />
        </mxCell>
        <mxCell id="FFqw4hAM8KVHVjfi0ow6-161" style="edgeStyle=entityRelationEdgeStyle;rounded=0;orthogonalLoop=1;jettySize=auto;html=1;entryX=0;entryY=0.5;entryDx=0;entryDy=0;" edge="1" parent="1" source="FFqw4hAM8KVHVjfi0ow6-75" target="FFqw4hAM8KVHVjfi0ow6-158">
          <mxGeometry relative="1" as="geometry" />
        </mxCell>
        <mxCell id="FFqw4hAM8KVHVjfi0ow6-174" style="edgeStyle=entityRelationEdgeStyle;rounded=0;orthogonalLoop=1;jettySize=auto;html=1;entryX=0;entryY=0.5;entryDx=0;entryDy=0;exitX=1;exitY=0.5;exitDx=0;exitDy=0;" edge="1" parent="1" source="FFqw4hAM8KVHVjfi0ow6-181" target="FFqw4hAM8KVHVjfi0ow6-171">
          <mxGeometry relative="1" as="geometry">
            <mxPoint x="920" y="-555" as="sourcePoint" />
          </mxGeometry>
        </mxCell>
        <mxCell id="FFqw4hAM8KVHVjfi0ow6-176" style="edgeStyle=entityRelationEdgeStyle;rounded=0;orthogonalLoop=1;jettySize=auto;html=1;entryX=0;entryY=0.5;entryDx=0;entryDy=0;" edge="1" parent="1" source="FFqw4hAM8KVHVjfi0ow6-171" target="FFqw4hAM8KVHVjfi0ow6-175">
          <mxGeometry relative="1" as="geometry" />
        </mxCell>
        <mxCell id="FFqw4hAM8KVHVjfi0ow6-180" style="edgeStyle=entityRelationEdgeStyle;rounded=0;orthogonalLoop=1;jettySize=auto;html=1;entryX=0;entryY=0.5;entryDx=0;entryDy=0;" edge="1" parent="1" source="FFqw4hAM8KVHVjfi0ow6-171" target="FFqw4hAM8KVHVjfi0ow6-178">
          <mxGeometry relative="1" as="geometry" />
        </mxCell>
        <mxCell id="FFqw4hAM8KVHVjfi0ow6-171" value="Wärmebedarf (gebäudebezogen) [kWh/a]" style="whiteSpace=wrap;html=1;fontFamily=Tahoma;strokeWidth=1;dashed=0;rounded=1;arcSize=5;fillColor=#eeeeee;strokeColor=#36393d;" vertex="1" parent="1">
          <mxGeometry x="840" y="-780" width="120" height="60" as="geometry" />
        </mxCell>
        <mxCell id="FFqw4hAM8KVHVjfi0ow6-175" value="Wärmebedarfsdichte&lt;div style=&quot;&quot;&gt;(baublockbezogene Darstellung)&amp;nbsp;&lt;/div&gt;&lt;div style=&quot;&quot;&gt;&lt;span style=&quot;background-color: transparent; color: light-dark(rgb(0, 0, 0), rgb(255, 255, 255));&quot;&gt;[MWh/(ha*a)]&lt;/span&gt;&lt;/div&gt;" style="whiteSpace=wrap;html=1;fontFamily=Tahoma;strokeWidth=1;dashed=0;rounded=1;arcSize=5;fillColor=#eeeeee;strokeColor=#36393d;" vertex="1" parent="1">
          <mxGeometry x="1020" y="-464" width="120" height="60" as="geometry" />
        </mxCell>
        <mxCell id="FFqw4hAM8KVHVjfi0ow6-178" value="Wärmeliniendichte (straßenabschnitts-bezogene&amp;nbsp; Darst.)&amp;nbsp;&lt;div style=&quot;&quot;&gt;&lt;span style=&quot;background-color: transparent;&quot;&gt;[MW&lt;u style=&quot;&quot;&gt;h&lt;/u&gt;/(m*a)]&lt;/span&gt;&lt;/div&gt;" style="whiteSpace=wrap;html=1;fontFamily=Tahoma;strokeWidth=1;dashed=0;rounded=1;arcSize=5;fillColor=#eeeeee;strokeColor=#36393d;" vertex="1" parent="1">
          <mxGeometry x="1020" y="-370" width="120" height="60" as="geometry" />
        </mxCell>
        <mxCell id="FFqw4hAM8KVHVjfi0ow6-181" value="&lt;span style=&quot;font-family: Helvetica;&quot;&gt;Einstufung von Gebäuden als GEG-relevant&lt;/span&gt;" style="whiteSpace=wrap;html=1;fontFamily=Tahoma;strokeWidth=1;dashed=0;rounded=1;arcSize=5;fillColor=#eeeeee;strokeColor=#36393d;" vertex="1" parent="1">
          <mxGeometry x="465" y="-413" width="120" height="60" as="geometry" />
        </mxCell>
        <mxCell id="FFqw4hAM8KVHVjfi0ow6-185" value="&lt;div&gt;&lt;div&gt;&lt;b&gt;Energetische Gebäudetypen&lt;/b&gt;&lt;/div&gt;&lt;ol&gt;&lt;li&gt;Einfamilienhaus&lt;/li&gt;&lt;li&gt;Reihenhaus&lt;/li&gt;&lt;li&gt;Mehrfamilienhaus&lt;/li&gt;&lt;li&gt;Großes Mehrfamilienhaus&lt;/li&gt;&lt;li&gt;Büro-, Verwaltungs-oder Amtsgebäude&lt;/li&gt;&lt;li&gt;Gebäude für Forschung&amp;nbsp; und Hochschullehre&lt;/li&gt;&lt;li&gt;Gebäude für Gesundheit und Pflege&lt;/li&gt;&lt;li&gt;Schule, Kindertagesstätte und sonstige&lt;/li&gt;&lt;li&gt;Betreuungsgebäude&lt;/li&gt;&lt;li&gt;Gebäude für Kultur und Freizeit&lt;/li&gt;&lt;li&gt;Sportgebäude&lt;/li&gt;&lt;li&gt;Beherberbungs- oder Unterbringungsgebäude, Gastronomie- oder Verpflegungsgebäude&lt;/li&gt;&lt;li&gt;Produktions-, Werkstatt-, Lager- oder Betriebsgebäude&lt;/li&gt;&lt;li&gt;Handelsgebäude&lt;/li&gt;&lt;li&gt;Technikgebäude (Ver- und Entsorgung)&lt;/li&gt;&lt;li&gt;Verkehrsgebäude&lt;/li&gt;&lt;/ol&gt;&lt;/div&gt;" style="shape=note;size=20;whiteSpace=wrap;html=1;align=left;spacingLeft=5;spacingBottom=5;spacingTop=5;spacingRight=5;" vertex="1" parent="1">
          <mxGeometry x="660" y="-1632.5" width="370" height="290" as="geometry" />
        </mxCell>
        <mxCell id="FFqw4hAM8KVHVjfi0ow6-186" style="edgeStyle=entityRelationEdgeStyle;rounded=0;orthogonalLoop=1;jettySize=auto;html=1;entryX=0.004;entryY=0.425;entryDx=0;entryDy=0;entryPerimeter=0;dashed=1;" edge="1" parent="1" source="FFqw4hAM8KVHVjfi0ow6-141" target="FFqw4hAM8KVHVjfi0ow6-185">
          <mxGeometry relative="1" as="geometry" />
        </mxCell>
      </root>
    </mxGraphModel>
  </diagram>
</mxfile>
